# AST/ASF file generated using VICON BodyLanguage
# -----------------------------------------------
:version 1.10
:name VICON
:units
  mass 1.0
  length 0.45
  angle deg
:documentation
   .ast/.asf automatically generated from VICON data using
   VICON BodyBuilder and BodyLanguage model FoxedUp or BRILLIANT.MOD
:root
   order TX TY TZ RX RY RZ
   axis XYZ
   position 0 0 0  
   orientation 0 -0 0 
:bonedata
  begin
     id 1 
     name lhipjoint
     direction 0.515797 -0.759363 0.396637 
     length 2.47888 
     axis 0 -0 0  XYZ
  end
  begin
     id 2 
     name lfemur
     direction 0.34202 -0.939693 0  
     length 6.81885  
     axis 0 -0 20  XYZ
    dof rx ry rz
    limits (-160.0 20.0)
           (-70.0 70.0)
           (-60.0 70.0)
  end
  begin
     id 3 
     name ltibia
     direction 0.342037 -0.939687 0   
     length 7.89258   
     axis 0 -0 20   XYZ
    dof rx
    limits (-10.0 170.0)
  end
  begin
     id 4 
     name lfoot
     direction 0.173497 -0.476678 0.861787   
     length 2.51543   
     axis -90 -1.13533e-015 20   XYZ
    dof rx rz
    limits (-45.0 90.0)
           (-70.0 20.0)
  end
  begin
     id 5 
     name ltoes
     direction 1.53564e-011 -4.21897e-011 1   
     length 1.21388   
     axis -90 -1.13533e-015 20   XYZ
    dof rx
    limits (-90.0 20.0)
  end
  begin
     id 6 
     name rhipjoint
     direction -0.489454 -0.772941 0.403729   
     length 2.43534  
     axis 0 -0 0  XYZ 
  end
  begin
     id 7 
     name rfemur
     direction -0.34202 -0.939693 0   
     length 7.10357   
     axis 0 -0 -20   XYZ
    dof rx ry rz
    limits (-160.0 20.0)
           (-70.0 70.0)
           (-70.0 60.0)
  end
  begin
     id 8 
     name rtibia
     direction -0.34202 -0.939693 0   
     length 9.16127   
     axis 0 -0 -20   XYZ
    dof rx
    limits (-10.0 170.0)
 end
 begin
     id 9 
     name rfoot
     direction -0.270974 -0.748671 0.605033   
     length 1.74894  
     axis -90 1.13533e-015 -20   XYZ
    dof rx rz
    limits (-45.0 90.0)
           (-20.0 70.0)
  end
  begin
     id 10 
     name rtoes
     direction -1.53557e-011 -4.21759e-011 1   
     length 0.787585   
     axis -90 1.13533e-015 -20   XYZ
    dof rx
    limits (-90.0 20.0)
  end
  begin
     id 11 
     name lowerback
     direction -0.0140249 0.999561 0.0260968   
     length 2.16963   
     axis 0 -0 0   XYZ
    dof rx ry rz
    limits (-20.0 45.0)
           (-30.0 30.0)
           (-30.0 30.0)
  end
  begin
     id 12 
     name upperback
     direction 0.00860018 0.999959 -0.002711   
     length 2.1726   
     axis 0 -0 0   XYZ
    dof rx ry rz
    limits (-20.0 45.0)
           (-30.0 30.0)
           (-30.0 30.0)
  end
  begin
     id 13 
     name thorax
     direction 0.015211 0.999782 -0.0143191   
     length 2.17061   
     axis 0 -0 0   XYZ
    dof rx ry rz
    limits (-20.0 45.0)
           (-30.0 30.0)
           (-30.0 30.0)
  end
  begin
     id 14 
     name lowerneck
     direction -0.0140143 0.999447 0.030145   
     length 2.26749   
     axis 0 -0 0   XYZ
    dof rx ry rz
    limits (-20.0 45.0)
           (-30.0 30.0)
           (-30.0 30.0)
  end
  begin
     id 15 
     name upperneck
     direction 0.118062 0.961438 -0.248392   
     length 2.22728   
     axis 0 -0 0   XYZ
    dof rx ry rz
    limits (-20.0 45.0)
           (-30.0 30.0)
           (-30.0 30.0)
  end
  begin
     id 16
     name head
     direction 0.0431885 0.9954 -0.085514  
     length 2.28786  
     axis 0 -0 0   XYZ
    dof rx ry rz
    limits (-20.0 45.0)
           (-30.0 30.0)
           (-30.0 30.0)
  end
  begin
     id 17 
     name lclavicle
     direction 0.912126 0.409548 0.0172323  
     length 4.31571  
     axis 0 -0 0   XYZ
    dof ry rz
    limits (-20.0 10.0)
           (0.0 20.0)
  end
  begin
     id 18 
     name lhumerus
     direction 1 -4.48977e-011 1.93091e-027   
     length 5.13658   
     axis 180 -30 -90   XYZ
    dof rx ry rz
    limits (-60.0 90.0)
           (-90.0 90.0)
           (-90.0 90.0)
  end
  begin
     id 19
     name lradius
     direction 1 -4.48916e-011 6.84018e-027   
     length 3.22473   
     axis 180 -30 -90   XYZ
    dof rx
    limits (-10.0 170.0)
  end
  begin
     id 20
     name lwrist
     direction 1 -4.48987e-011 7.01981e-027   
     length 1.61236   
     axis -4.37994e-015 90 90   XYZ
    dof ry
    limits (-180.0 0.0)
 end
  begin
     id 21 
     name lhand
     direction 1 -4.49037e-011 1.40335e-026   
     length 0.936406   
     axis -8.96029e-015 90 90   XYZ
    dof rx rz
    limits (-90.0 90.0)
           (-45.0 45.0)
  end
  begin
     id 22 
     name lfingers
     direction 1 -4.48886e-011 2.8104e-026   
     length 0.754955   
     axis -1.79203e-014 90 90   XYZ
    dof rx
    limits (0.0 90.0)
  end
  begin
     id 23
     name lthumb
     direction 0.707107 -6.34937e-011 0.707107   
     length 1.08397   
     axis -90 45 -4.48555e-014   XYZ
    dof rx rz
    limits (-45.0 45.0)
           (-45.0 45.0)
  end
  begin
     id 24 
     name rclavicle
     direction -0.947962 0.317997 0.0156638   
     length 4.86918  
     axis 0 -0 0   XYZ 
    dof ry rz
    limits (-10.0 20.0)
           (-20.0 0.0)
  end
  begin
     id 25 
     name rhumerus
     direction -1 -4.48951e-011 2.80534e-018  
     length 5.60911   
     axis 180 30 90   XYZ
    dof rx ry rz
    limits (-90.0 60.0)
           (-90.0 90.0)
           (-90.0 90.0)
  end
  begin
     id 26 
     name rradius
     direction -1 -4.4898e-011 2.11315e-027   
     length 3.38704   
     axis 180 30 90   XYZ
    dof rx
    limits (-10.0 170.0)
  end
  begin
     id 27 
     name rwrist
     direction -1 -4.48933e-011 7.02314e-027   
     length 1.69352   
     axis -4.37994e-015 -90 -90   XYZ
    dof ry
    limits (-180.0 0.0)
  end
  begin
     id 28
     name rhand
     direction -1 -4.48937e-011 1.40458e-026   
     length 0.755878   
     axis -8.96029e-015 -90 -90   XYZ
    dof rx rz
    limits (-90.0 90.0)
           (-45.0 45.0)
  end
  begin
     id 29
     name rfingers
     direction -1 -4.4901e-011 2.80737e-026   
     length 0.609409   
     axis -1.79203e-014 -90 -90   XYZ
    dof rx
    limits (0.0 90.0)
  end
  begin
     id 30
     name rthumb
     direction -0.707107 -6.34968e-011 0.707107   
     length 0.874992   
     axis -90 -45 4.48555e-014   XYZ
    dof rx rz
    limits (-45.0 45.0)
           (-45.0 45.0)
  end
:hierarchy
  begin
    root lhipjoint rhipjoint lowerback
    lhipjoint lfemur
    lfemur ltibia
    ltibia lfoot
    lfoot ltoes
    rhipjoint rfemur
    rfemur rtibia
    rtibia rfoot
    rfoot rtoes
    lowerback upperback
    upperback thorax
    thorax lowerneck lclavicle rclavicle
    lowerneck upperneck
    upperneck head
    lclavicle lhumerus
    lhumerus lradius
    lradius lwrist
    lwrist lhand lthumb
    lhand lfingers
    rclavicle rhumerus
    rhumerus rradius
    rradius rwrist
    rwrist rhand rthumb
    rhand rfingers
  end

#!OML:ASF C:\ViconDB\ViconDB\414\Spring2016\041811\Spring2016.ASF
:FULLY-SPECIFIED
:DEGREES
31
root 7.98345 18.2601 2.17763 -178.332 -3.56647 179.165
lowerback -3.46713 0.525699 -4.22887
upperback 0.481873 0.875073 -0.0349111
thorax 2.37866 0.375854 2.38308
lowerneck -15.5813 2.18114 -4.67982
upperneck 24.3808 0.667584 10.0112
head 10.2703 0.658484 4.39476
rclavicle -4.16205e-016 -2.38542e-015
rhumerus -40.3529 -16.045 -88.9369
rradius 36.6281
rwrist 36.6339
rhand -34.3835 -13.9295
rfingers 7.12502
rthumb -7.54974 -43.7748
lclavicle -4.16205e-016 -2.38542e-015
lhumerus -36.3763 -3.6183 90.3518
lradius 26.8934
lwrist -27.7011
lhand -27.9743 16.5284
lfingers 7.12502
lthumb -1.36107 46.5038
rfemur 6.056 -11.8938 17.1103
rtibia 8.72351
rfoot -15.215 -5.07852
rtoes -12.8503
lfemur -4.12844 -11.8302 -16.1657
ltibia 20.9504
lfoot -21.4828 7.04393
ltoes -9.37726
32
root 7.9844 18.2611 2.19193 -178.312 -3.52546 179.175
lowerback -3.27219 0.510491 -4.267
upperback 0.523556 0.84774 0.00596927
thorax 2.31296 0.362622 2.44293
lowerneck -15.3866 2.14987 -4.80554
upperneck 24.2286 0.604388 10.2082
head 10.1802 0.633886 4.46888
rclavicle -9.43295e-015 7.95139e-016
rhumerus -40.2585 -15.8821 -88.8118
rradius 36.6831
rwrist 36.936
rhand -34.5489 -14.0702
rfingers 7.12502
rthumb -7.70942 -43.9097
lclavicle -9.43295e-015 7.95139e-016
lhumerus -36.2934 -3.66426 90.3775
lradius 27.1018
lwrist -27.4737
lhand -27.9681 16.4592
lfingers 7.12502
lthumb -1.3551 46.4346
rfemur 6.02777 -11.8552 17.1423
rtibia 8.63542
rfoot -15.273 -5.03473
rtoes -12.9071
lfemur -4.25377 -11.6287 -16.1237
ltibia 21.0091
lfoot -21.3936 6.93221
ltoes -9.45176
33
root 7.98541 18.2626 2.20859 -178.314 -3.46807 179.186
lowerback -3.00309 0.516022 -4.36041
upperback 0.599973 0.846505 0.122361
thorax 2.23773 0.361259 2.61235
lowerneck -15.4225 2.09513 -5.05708
upperneck 24.2004 0.6122 10.2052
head 10.1731 0.619528 4.5128
rclavicle -1.63625e-014 -5.1684e-015
rhumerus -40.0681 -15.6407 -88.6553
rradius 36.7742
rwrist 36.7053
rhand -34.9529 -14.6082
rfingers 7.12502
rthumb -8.09932 -44.433
lclavicle -1.63625e-014 -5.1684e-015
lhumerus -36.0943 -3.43436 90.4176
lradius 27.1962
lwrist -27.7196
lhand -28.0474 16.4124
lfingers 7.12502
lthumb -1.43165 46.3873
rfemur 6.03978 -11.7998 17.1804
rtibia 8.51159
rfoot -15.3178 -4.99133
rtoes -12.8949
lfemur -4.37615 -11.4627 -16.0897
ltibia 21.0891
lfoot -21.3274 6.85421
ltoes -9.51629
34
root 7.9842 18.2654 2.22422 -178.254 -3.42125 179.216
lowerback -2.83982 0.563702 -4.1403
upperback 0.665058 0.897004 -0.0267952
thorax 2.21437 0.389129 2.33565
lowerneck -15.3198 2.07025 -4.81542
upperneck 24.058 0.528823 10.1625
head 10.1132 0.596467 4.43693
rclavicle -3.96327e-015 -2.18663e-015
rhumerus -39.9339 -15.6734 -88.7458
rradius 36.8916
rwrist 36.6573
rhand -34.7202 -14.363
rfingers 7.12502
rthumb -7.87473 -44.1964
lclavicle -3.96327e-015 -2.18663e-015
lhumerus -36.0066 -3.76235 90.2159
lradius 27.3831
lwrist -27.8486
lhand -28.1115 16.304
lfingers 7.12502
lthumb -1.49365 46.2785
rfemur 5.9812 -11.755 17.2197
rtibia 8.38209
rfoot -15.391 -4.94076
rtoes -12.8912
lfemur -4.56834 -11.298 -16.0346
ltibia 21.1779
lfoot -21.2424 6.79505
ltoes -9.52653
35
root 7.98439 18.2674 2.23935 -178.217 -3.35619 179.232
lowerback -2.62639 0.58218 -4.09245
upperback 0.745226 0.911646 -0.0570103
thorax 2.17707 0.396593 2.27599
lowerneck -15.3144 2.01239 -4.97679
upperneck 23.9826 0.41077 10.4577
head 10.0926 0.558248 4.55395
rclavicle 9.88333e-015 6.16232e-015
rhumerus -39.7811 -15.7845 -88.64
rradius 36.942
rwrist 36.885
rhand -34.8344 -14.03
rfingers 7.12502
rthumb -7.98499 -43.8591
lclavicle 9.88333e-015 6.16232e-015
lhumerus -35.8403 -3.89064 90.1366
lradius 27.5319
lwrist -27.7421
lhand -28.1927 16.1204
lfingers 7.12502
lthumb -1.57204 46.0943
rfemur 5.94424 -11.6928 17.2602
rtibia 8.26719
rfoot -15.4565 -4.89692
rtoes -12.8303
lfemur -4.7256 -11.1334 -15.9876
ltibia 21.2618
lfoot -21.1922 6.71482
ltoes -9.49958
36
root 7.98334 18.2707 2.256 -178.134 -3.25149 179.273
lowerback -2.45876 0.601547 -3.99676
upperback 0.828569 0.928145 -0.0660806
thorax 2.16901 0.404993 2.212
lowerneck -15.2967 2.00546 -4.8764
upperneck 23.9043 0.421553 10.3304
head 10.0622 0.561277 4.48866
rclavicle -1.53437e-015 -7.35503e-015
rhumerus -39.5976 -15.6782 -88.5941
rradius 37.0503
rwrist 36.9033
rhand -34.9287 -13.8997
rfingers 7.12502
rthumb -8.07591 -43.7254
lclavicle -1.53437e-015 -7.35503e-015
lhumerus -35.6851 -3.89623 90.0568
lradius 27.7264
lwrist -27.7378
lhand -28.2454 15.9848
lfingers 7.12502
lthumb -1.62289 45.9584
rfemur 5.78025 -11.5921 17.3285
rtibia 8.2457
rfoot -15.4951 -4.88081
rtoes -12.8344
lfemur -4.9237 -11.0537 -15.9235
ltibia 21.3425
lfoot -21.1757 6.76376
ltoes -9.48157
37
root 7.98456 18.2731 2.27256 -178.064 -3.25267 179.237
lowerback -2.27462 0.597221 -4.00597
upperback 0.932447 0.915604 -0.0981103
thorax 2.17367 0.396553 2.18192
lowerneck -15.3004 1.96367 -4.89796
upperneck 23.8089 0.356247 10.4156
head 10.0343 0.540422 4.51174
rclavicle -1.05977e-014 -5.1684e-015
rhumerus -39.4433 -15.6173 -88.488
rradius 37.2103
rwrist 37.1835
rhand -34.8125 -14.0675
rfingers 7.12502
rthumb -7.9638 -43.8975
lclavicle -1.05977e-014 -5.1684e-015
lhumerus -35.5788 -4.12245 90.0086
lradius 28.0131
lwrist -27.6472
lhand -28.2863 15.9412
lfingers 7.12502
lthumb -1.66238 45.9144
rfemur 5.63268 -11.5986 17.3175
rtibia 8.28081
rfoot -15.5225 -4.88755
rtoes -12.8734
lfemur -5.09663 -10.9706 -15.928
ltibia 21.3795
lfoot -21.0958 6.70123
ltoes -9.46686
38
root 7.98637 18.2751 2.29249 -178.003 -3.26502 179.209
lowerback -2.02248 0.590322 -4.04325
upperback 1.04215 0.896511 -0.0972858
thorax 2.14561 0.384724 2.20031
lowerneck -15.3503 1.94272 -4.85592
upperneck 23.7592 0.350135 10.3383
head 10.0279 0.537869 4.47554
rclavicle -9.67833e-015 -2.5842e-015
rhumerus -39.2397 -15.4497 -88.4316
rradius 37.3501
rwrist 36.8721
rhand -34.9935 -13.9252
rfingers 7.12502
rthumb -8.13846 -43.7485
lclavicle -9.67833e-015 -2.5842e-015
lhumerus -35.4291 -4.13606 89.9921
lradius 28.2247
lwrist -27.594
lhand -28.3788 15.955
lfingers 7.12502
lthumb -1.75178 45.9276
rfemur 5.42526 -11.6158 17.3131
rtibia 8.40225
rfoot -15.5322 -4.90396
rtoes -12.8642
lfemur -5.26681 -10.8908 -15.9142
ltibia 21.4013
lfoot -21.0041 6.64
ltoes -9.4486
39
root 7.98932 18.2806 2.31053 -177.927 -3.24642 179.156
lowerback -1.7548 0.606422 -4.10842
upperback 1.13697 0.907111 -0.111992
thorax 2.0913 0.387841 2.21912
lowerneck -15.3697 1.87264 -5.04034
upperneck 23.6186 0.269563 10.5341
head 9.98636 0.509778 4.5638
rclavicle 4.41053e-015 5.1684e-015
rhumerus -39.079 -15.466 -88.3417
rradius 37.4992
rwrist 36.8295
rhand -35.1438 -14.283
rfingers 7.12502
rthumb -8.28355 -44.1006
lclavicle 4.41053e-015 5.1684e-015
lhumerus -35.3009 -4.38051 90.0319
lradius 28.4455
lwrist -27.1954
lhand -28.4616 15.9911
lfingers 7.12502
lthumb -1.8317 45.963
rfemur 5.16377 -11.6047 17.2998
rtibia 8.58662
rfoot -15.5372 -4.93175
rtoes -12.9198
lfemur -5.43086 -10.7007 -15.9428
ltibia 21.4036
lfoot -20.8633 6.58262
ltoes -9.66853
40
root 7.9894 18.2831 2.33125 -177.85 -3.19145 179.173
lowerback -1.46762 0.625701 -4.08327
upperback 1.23915 0.918348 -0.113903
thorax 2.03456 0.392414 2.20024
lowerneck -15.4407 1.85304 -5.04618
upperneck 23.5646 0.2611 10.5258
head 9.98182 0.509957 4.56086
rclavicle 1.08835e-014 1.98785e-015
rhumerus -38.8722 -15.3488 -88.2253
rradius 37.6203
rwrist 36.7195
rhand -34.8547 -13.8104
rfingers 7.12502
rthumb -8.00449 -43.6388
lclavicle 1.08835e-014 1.98785e-015
lhumerus -35.1092 -4.4101 89.9905
lradius 28.5585
lwrist -27.1883
lhand -28.5933 16.1135
lfingers 7.12502
lthumb -1.95897 46.0843
rfemur 4.86164 -11.5569 17.3529
rtibia 8.81981
rfoot -15.5341 -4.94685
rtoes -12.9751
lfemur -5.60376 -10.7219 -15.8804
ltibia 21.4222
lfoot -20.8366 6.58368
ltoes -9.43979
41
root 7.98982 18.2892 2.35693 -177.71 -3.11418 179.159
lowerback -1.13574 0.642305 -4.0535
upperback 1.30044 0.923015 -0.121928
thorax 1.91116 0.395784 2.1713
lowerneck -15.4351 1.84143 -4.98585
upperneck 23.3738 0.283952 10.4478
head 9.91196 0.524812 4.51835
rclavicle -1.13059e-014 9.93923e-015
rhumerus -38.7622 -15.5661 -88.0304
rradius 37.7081
rwrist 37.2506
rhand -35.1065 -14.0245
rfingers 7.12502
rthumb -8.24755 -43.8435
lclavicle -1.13059e-014 9.93923e-015
lhumerus -34.9872 -4.23928 89.9194
lradius 28.6948
lwrist -27.3907
lhand -28.808 16.0602
lfingers 7.12502
lthumb -2.16626 46.0289
rfemur 4.48486 -11.4876 17.3836
rtibia 9.00179
rfoot -15.5411 -4.92113
rtoes -12.8926
lfemur -5.86825 -10.6408 -15.8483
ltibia 21.4348
lfoot -20.7398 6.58921
ltoes -9.36415
42
root 7.98898 18.2937 2.3839 -177.582 -3.0127 179.236
lowerback -0.727249 0.66812 -3.91235
upperback 1.33644 0.934382 -0.12494
thorax 1.7197 0.405823 2.084
lowerneck -15.4182 1.86166 -5.02024
upperneck 23.2286 0.343223 10.4622
head 9.85128 0.55578 4.53126
rclavicle -6.79595e-015 -7.95139e-016
rhumerus -38.6563 -15.4255 -87.9736
rradius 37.925
rwrist 36.7423
rhand -35.4323 -13.9649
rfingers 7.12502
rthumb -8.56199 -43.7713
lclavicle -6.79595e-015 -7.95139e-016
lhumerus -34.9048 -4.16863 89.8243
lradius 28.794
lwrist -27.5299
lhand -29.0348 16.0817
lfingers 7.12502
lthumb -2.38536 46.0481
rfemur 4.09728 -11.3904 17.5099
rtibia 9.19459
rfoot -15.5964 -4.89695
rtoes -12.9225
lfemur -6.11154 -11.2136 -15.7974
ltibia 21.4804
lfoot -20.8103 7.27675
ltoes -9.34097
43
root 7.98746 18.3033 2.40909 -177.391 -2.87262 179.279
lowerback -0.446016 0.720755 -3.82048
upperback 1.41016 0.989267 -0.130609
thorax 1.63531 0.433864 2.02427
lowerneck -15.489 1.88995 -4.93393
upperneck 23.0709 0.414771 10.3911
head 9.804 0.598812 4.49604
rclavicle 7.16867e-015 2.5842e-015
rhumerus -38.5079 -15.3299 -87.8689
rradius 38.1317
rwrist 36.5672
rhand -35.1545 -14.0423
rfingers 7.12502
rthumb -8.29384 -43.8595
lclavicle 7.16867e-015 2.5842e-015
lhumerus -34.695 -3.95043 89.6515
lradius 28.7876
lwrist -27.7741
lhand -29.2074 16.0237
lfingers 7.12502
lthumb -2.55201 45.9881
rfemur 3.62536 -11.2575 17.5989
rtibia 9.4204
rfoot -15.6329 -4.88382
rtoes -12.9525
lfemur -6.47643 -10.6134 -15.6621
ltibia 21.5284
lfoot -20.5943 6.88166
ltoes -9.4183
44
root 7.98823 18.3081 2.43586 -177.281 -2.8133 179.291
lowerback -0.0160289 0.753017 -3.78391
upperback 1.47896 1.01002 -0.120772
thorax 1.46349 0.445262 2.00841
lowerneck -15.4964 1.90139 -4.97778
upperneck 22.8667 0.487177 10.3742
head 9.72644 0.63576 4.49967
rclavicle -1.97542e-015 1.03368e-014
rhumerus -38.4124 -15.1487 -87.802
rradius 38.4588
rwrist 35.658
rhand -34.7395 -13.7489
rfingers 7.12502
rthumb -7.89337 -43.5815
lclavicle -1.97542e-015 1.03368e-014
lhumerus -34.651 -4.04655 89.7049
lradius 28.9456
lwrist -27.6813
lhand -29.4256 16.1936
lfingers 7.12502
lthumb -2.76273 46.1555
rfemur 3.28164 -11.2033 17.6529
rtibia 9.61228
rfoot -15.6502 -4.88249
rtoes -12.907
lfemur -6.75593 -10.3715 -15.59
ltibia 21.5916
lfoot -20.4645 6.72749
ltoes -9.36865
